<mxfile host="app.diagrams.net" agent="Mozilla/5.0 (Windows NT 10.0; Win64; x64) AppleWebKit/537.36 (KHTML, like Gecko) Chrome/131.0.0.0 Safari/537.36" version="25.0.3">
  <diagram name="หน้า-1" id="_vlY7cefpdjIXqrLnBoB">
    <mxGraphModel dx="4779" dy="991" grid="1" gridSize="10" guides="1" tooltips="1" connect="1" arrows="1" fold="1" page="1" pageScale="1" pageWidth="827" pageHeight="1169" math="0" shadow="0">
      <root>
        <mxCell id="0" />
        <mxCell id="1" parent="0" />
        <mxCell id="gcG7IGKVbkduZ7ScGkTq-3" value="" style="edgeStyle=orthogonalEdgeStyle;rounded=0;orthogonalLoop=1;jettySize=auto;html=1;" edge="1" parent="1" source="gcG7IGKVbkduZ7ScGkTq-1" target="gcG7IGKVbkduZ7ScGkTq-2">
          <mxGeometry relative="1" as="geometry" />
        </mxCell>
        <mxCell id="gcG7IGKVbkduZ7ScGkTq-1" value="start" style="ellipse;whiteSpace=wrap;html=1;" vertex="1" parent="1">
          <mxGeometry x="340" y="60" width="120" height="80" as="geometry" />
        </mxCell>
        <mxCell id="gcG7IGKVbkduZ7ScGkTq-5" value="" style="edgeStyle=orthogonalEdgeStyle;rounded=0;orthogonalLoop=1;jettySize=auto;html=1;" edge="1" parent="1" source="gcG7IGKVbkduZ7ScGkTq-2" target="gcG7IGKVbkduZ7ScGkTq-4">
          <mxGeometry relative="1" as="geometry" />
        </mxCell>
        <mxCell id="gcG7IGKVbkduZ7ScGkTq-2" value="สร้างตัวแปร number1&lt;div&gt;และ number2&lt;/div&gt;" style="whiteSpace=wrap;html=1;" vertex="1" parent="1">
          <mxGeometry x="340" y="230" width="120" height="60" as="geometry" />
        </mxCell>
        <mxCell id="gcG7IGKVbkduZ7ScGkTq-7" value="" style="edgeStyle=orthogonalEdgeStyle;rounded=0;orthogonalLoop=1;jettySize=auto;html=1;" edge="1" parent="1" source="gcG7IGKVbkduZ7ScGkTq-4" target="gcG7IGKVbkduZ7ScGkTq-6">
          <mxGeometry relative="1" as="geometry" />
        </mxCell>
        <mxCell id="gcG7IGKVbkduZ7ScGkTq-4" value="แสดงข้อความ Enter element&amp;nbsp; of Array1" style="shape=parallelogram;perimeter=parallelogramPerimeter;whiteSpace=wrap;html=1;fixedSize=1;" vertex="1" parent="1">
          <mxGeometry x="270" y="370" width="260" height="60" as="geometry" />
        </mxCell>
        <mxCell id="gcG7IGKVbkduZ7ScGkTq-9" value="" style="edgeStyle=orthogonalEdgeStyle;rounded=0;orthogonalLoop=1;jettySize=auto;html=1;" edge="1" parent="1" source="gcG7IGKVbkduZ7ScGkTq-6" target="gcG7IGKVbkduZ7ScGkTq-8">
          <mxGeometry relative="1" as="geometry" />
        </mxCell>
        <mxCell id="gcG7IGKVbkduZ7ScGkTq-6" value="รับค่าจากผู้ใช้" style="shape=parallelogram;perimeter=parallelogramPerimeter;whiteSpace=wrap;html=1;fixedSize=1;" vertex="1" parent="1">
          <mxGeometry x="340" y="510" width="120" height="60" as="geometry" />
        </mxCell>
        <mxCell id="gcG7IGKVbkduZ7ScGkTq-11" value="" style="edgeStyle=orthogonalEdgeStyle;rounded=0;orthogonalLoop=1;jettySize=auto;html=1;" edge="1" parent="1" source="gcG7IGKVbkduZ7ScGkTq-8" target="gcG7IGKVbkduZ7ScGkTq-10">
          <mxGeometry relative="1" as="geometry" />
        </mxCell>
        <mxCell id="gcG7IGKVbkduZ7ScGkTq-8" value="int array1" style="whiteSpace=wrap;html=1;" vertex="1" parent="1">
          <mxGeometry x="340" y="650" width="120" height="60" as="geometry" />
        </mxCell>
        <mxCell id="gcG7IGKVbkduZ7ScGkTq-13" value="" style="edgeStyle=orthogonalEdgeStyle;rounded=0;orthogonalLoop=1;jettySize=auto;html=1;" edge="1" parent="1" source="gcG7IGKVbkduZ7ScGkTq-10" target="gcG7IGKVbkduZ7ScGkTq-12">
          <mxGeometry relative="1" as="geometry" />
        </mxCell>
        <mxCell id="gcG7IGKVbkduZ7ScGkTq-10" value="int i = 0" style="whiteSpace=wrap;html=1;" vertex="1" parent="1">
          <mxGeometry x="340" y="790" width="120" height="60" as="geometry" />
        </mxCell>
        <mxCell id="gcG7IGKVbkduZ7ScGkTq-15" value="" style="edgeStyle=orthogonalEdgeStyle;rounded=0;orthogonalLoop=1;jettySize=auto;html=1;" edge="1" parent="1" source="gcG7IGKVbkduZ7ScGkTq-12" target="gcG7IGKVbkduZ7ScGkTq-14">
          <mxGeometry relative="1" as="geometry" />
        </mxCell>
        <mxCell id="gcG7IGKVbkduZ7ScGkTq-24" value="" style="edgeStyle=orthogonalEdgeStyle;rounded=0;orthogonalLoop=1;jettySize=auto;html=1;" edge="1" parent="1" source="gcG7IGKVbkduZ7ScGkTq-12" target="gcG7IGKVbkduZ7ScGkTq-23">
          <mxGeometry relative="1" as="geometry" />
        </mxCell>
        <mxCell id="gcG7IGKVbkduZ7ScGkTq-12" value="i &amp;lt; number1 ?" style="rhombus;whiteSpace=wrap;html=1;" vertex="1" parent="1">
          <mxGeometry x="345" y="920" width="110" height="100" as="geometry" />
        </mxCell>
        <mxCell id="gcG7IGKVbkduZ7ScGkTq-17" value="" style="edgeStyle=orthogonalEdgeStyle;rounded=0;orthogonalLoop=1;jettySize=auto;html=1;" edge="1" parent="1" source="gcG7IGKVbkduZ7ScGkTq-14" target="gcG7IGKVbkduZ7ScGkTq-16">
          <mxGeometry relative="1" as="geometry" />
        </mxCell>
        <mxCell id="gcG7IGKVbkduZ7ScGkTq-14" value="แสดงข้อความ --| Array1 [ ตัวเลข ]" style="shape=parallelogram;perimeter=parallelogramPerimeter;whiteSpace=wrap;html=1;fixedSize=1;" vertex="1" parent="1">
          <mxGeometry x="295" y="1120" width="210" height="60" as="geometry" />
        </mxCell>
        <mxCell id="gcG7IGKVbkduZ7ScGkTq-19" value="" style="edgeStyle=orthogonalEdgeStyle;rounded=0;orthogonalLoop=1;jettySize=auto;html=1;" edge="1" parent="1" source="gcG7IGKVbkduZ7ScGkTq-16" target="gcG7IGKVbkduZ7ScGkTq-18">
          <mxGeometry relative="1" as="geometry" />
        </mxCell>
        <mxCell id="gcG7IGKVbkduZ7ScGkTq-16" value="รับค่าจากผู้ใช้" style="shape=parallelogram;perimeter=parallelogramPerimeter;whiteSpace=wrap;html=1;fixedSize=1;" vertex="1" parent="1">
          <mxGeometry x="340" y="1260" width="120" height="60" as="geometry" />
        </mxCell>
        <mxCell id="gcG7IGKVbkduZ7ScGkTq-18" value="i++" style="whiteSpace=wrap;html=1;" vertex="1" parent="1">
          <mxGeometry x="340" y="1400" width="120" height="60" as="geometry" />
        </mxCell>
        <mxCell id="gcG7IGKVbkduZ7ScGkTq-20" value="" style="shape=waypoint;sketch=0;fillStyle=solid;size=6;pointerEvents=1;points=[];fillColor=none;resizable=0;rotatable=0;perimeter=centerPerimeter;snapToPoint=1;" vertex="1" parent="1">
          <mxGeometry x="390" y="880" width="20" height="20" as="geometry" />
        </mxCell>
        <mxCell id="gcG7IGKVbkduZ7ScGkTq-21" style="edgeStyle=orthogonalEdgeStyle;rounded=0;orthogonalLoop=1;jettySize=auto;html=1;exitX=0.5;exitY=1;exitDx=0;exitDy=0;entryX=1.1;entryY=0.9;entryDx=0;entryDy=0;entryPerimeter=0;" edge="1" parent="1" source="gcG7IGKVbkduZ7ScGkTq-18" target="gcG7IGKVbkduZ7ScGkTq-20">
          <mxGeometry relative="1" as="geometry">
            <Array as="points">
              <mxPoint x="400" y="1500" />
              <mxPoint x="560" y="1500" />
              <mxPoint x="560" y="890" />
            </Array>
          </mxGeometry>
        </mxCell>
        <mxCell id="gcG7IGKVbkduZ7ScGkTq-22" value="T" style="text;html=1;align=center;verticalAlign=middle;resizable=0;points=[];autosize=1;strokeColor=none;fillColor=none;" vertex="1" parent="1">
          <mxGeometry x="405" y="1018" width="30" height="30" as="geometry" />
        </mxCell>
        <mxCell id="gcG7IGKVbkduZ7ScGkTq-27" value="" style="edgeStyle=orthogonalEdgeStyle;rounded=0;orthogonalLoop=1;jettySize=auto;html=1;" edge="1" parent="1" source="gcG7IGKVbkduZ7ScGkTq-23" target="gcG7IGKVbkduZ7ScGkTq-26">
          <mxGeometry relative="1" as="geometry" />
        </mxCell>
        <mxCell id="gcG7IGKVbkduZ7ScGkTq-23" value="แสดงข้อความ Enter element of Array 2" style="shape=parallelogram;perimeter=parallelogramPerimeter;whiteSpace=wrap;html=1;fixedSize=1;" vertex="1" parent="1">
          <mxGeometry x="-310" y="1090" width="250" height="60" as="geometry" />
        </mxCell>
        <mxCell id="gcG7IGKVbkduZ7ScGkTq-25" value="F" style="text;html=1;align=center;verticalAlign=middle;resizable=0;points=[];autosize=1;strokeColor=none;fillColor=none;" vertex="1" parent="1">
          <mxGeometry x="305" y="928" width="30" height="30" as="geometry" />
        </mxCell>
        <mxCell id="gcG7IGKVbkduZ7ScGkTq-29" value="" style="edgeStyle=orthogonalEdgeStyle;rounded=0;orthogonalLoop=1;jettySize=auto;html=1;" edge="1" parent="1" source="gcG7IGKVbkduZ7ScGkTq-26" target="gcG7IGKVbkduZ7ScGkTq-28">
          <mxGeometry relative="1" as="geometry" />
        </mxCell>
        <mxCell id="gcG7IGKVbkduZ7ScGkTq-26" value="รับค่าจากผู้ใช้" style="shape=parallelogram;perimeter=parallelogramPerimeter;whiteSpace=wrap;html=1;fixedSize=1;" vertex="1" parent="1">
          <mxGeometry x="-245" y="1230" width="120" height="60" as="geometry" />
        </mxCell>
        <mxCell id="gcG7IGKVbkduZ7ScGkTq-31" value="" style="edgeStyle=orthogonalEdgeStyle;rounded=0;orthogonalLoop=1;jettySize=auto;html=1;" edge="1" parent="1" source="gcG7IGKVbkduZ7ScGkTq-28" target="gcG7IGKVbkduZ7ScGkTq-30">
          <mxGeometry relative="1" as="geometry" />
        </mxCell>
        <mxCell id="gcG7IGKVbkduZ7ScGkTq-28" value="int array2" style="whiteSpace=wrap;html=1;" vertex="1" parent="1">
          <mxGeometry x="-245" y="1370" width="120" height="60" as="geometry" />
        </mxCell>
        <mxCell id="gcG7IGKVbkduZ7ScGkTq-33" value="" style="edgeStyle=orthogonalEdgeStyle;rounded=0;orthogonalLoop=1;jettySize=auto;html=1;" edge="1" parent="1" source="gcG7IGKVbkduZ7ScGkTq-30" target="gcG7IGKVbkduZ7ScGkTq-32">
          <mxGeometry relative="1" as="geometry" />
        </mxCell>
        <mxCell id="gcG7IGKVbkduZ7ScGkTq-30" value="int i = 0" style="whiteSpace=wrap;html=1;" vertex="1" parent="1">
          <mxGeometry x="-245" y="1510" width="120" height="60" as="geometry" />
        </mxCell>
        <mxCell id="gcG7IGKVbkduZ7ScGkTq-35" value="" style="edgeStyle=orthogonalEdgeStyle;rounded=0;orthogonalLoop=1;jettySize=auto;html=1;" edge="1" parent="1" source="gcG7IGKVbkduZ7ScGkTq-32" target="gcG7IGKVbkduZ7ScGkTq-34">
          <mxGeometry relative="1" as="geometry" />
        </mxCell>
        <mxCell id="gcG7IGKVbkduZ7ScGkTq-45" value="" style="edgeStyle=orthogonalEdgeStyle;rounded=0;orthogonalLoop=1;jettySize=auto;html=1;" edge="1" parent="1" source="gcG7IGKVbkduZ7ScGkTq-32" target="gcG7IGKVbkduZ7ScGkTq-44">
          <mxGeometry relative="1" as="geometry" />
        </mxCell>
        <mxCell id="gcG7IGKVbkduZ7ScGkTq-32" value="i &amp;lt; number2 ?" style="rhombus;whiteSpace=wrap;html=1;" vertex="1" parent="1">
          <mxGeometry x="-247.5" y="1644" width="125" height="110" as="geometry" />
        </mxCell>
        <mxCell id="gcG7IGKVbkduZ7ScGkTq-39" value="" style="edgeStyle=orthogonalEdgeStyle;rounded=0;orthogonalLoop=1;jettySize=auto;html=1;" edge="1" parent="1" source="gcG7IGKVbkduZ7ScGkTq-34" target="gcG7IGKVbkduZ7ScGkTq-38">
          <mxGeometry relative="1" as="geometry" />
        </mxCell>
        <mxCell id="gcG7IGKVbkduZ7ScGkTq-34" value="แสดงข้อความ --| Array 2 [ ตัวเลข ]" style="shape=parallelogram;perimeter=parallelogramPerimeter;whiteSpace=wrap;html=1;fixedSize=1;" vertex="1" parent="1">
          <mxGeometry x="-292.5" y="1859" width="215" height="60" as="geometry" />
        </mxCell>
        <mxCell id="gcG7IGKVbkduZ7ScGkTq-41" value="" style="edgeStyle=orthogonalEdgeStyle;rounded=0;orthogonalLoop=1;jettySize=auto;html=1;" edge="1" parent="1" source="gcG7IGKVbkduZ7ScGkTq-38" target="gcG7IGKVbkduZ7ScGkTq-40">
          <mxGeometry relative="1" as="geometry" />
        </mxCell>
        <mxCell id="gcG7IGKVbkduZ7ScGkTq-38" value="รับค่าจากผูใช้" style="shape=parallelogram;perimeter=parallelogramPerimeter;whiteSpace=wrap;html=1;fixedSize=1;" vertex="1" parent="1">
          <mxGeometry x="-245" y="1999" width="120" height="60" as="geometry" />
        </mxCell>
        <mxCell id="gcG7IGKVbkduZ7ScGkTq-40" value="i++" style="whiteSpace=wrap;html=1;" vertex="1" parent="1">
          <mxGeometry x="-245" y="2139" width="120" height="60" as="geometry" />
        </mxCell>
        <mxCell id="gcG7IGKVbkduZ7ScGkTq-42" value="" style="shape=waypoint;sketch=0;fillStyle=solid;size=6;pointerEvents=1;points=[];fillColor=none;resizable=0;rotatable=0;perimeter=centerPerimeter;snapToPoint=1;" vertex="1" parent="1">
          <mxGeometry x="-195" y="1590" width="20" height="20" as="geometry" />
        </mxCell>
        <mxCell id="gcG7IGKVbkduZ7ScGkTq-43" style="edgeStyle=orthogonalEdgeStyle;rounded=0;orthogonalLoop=1;jettySize=auto;html=1;exitX=0.5;exitY=1;exitDx=0;exitDy=0;entryX=0.85;entryY=0.6;entryDx=0;entryDy=0;entryPerimeter=0;" edge="1" parent="1" source="gcG7IGKVbkduZ7ScGkTq-40" target="gcG7IGKVbkduZ7ScGkTq-42">
          <mxGeometry relative="1" as="geometry">
            <Array as="points">
              <mxPoint x="-185" y="2240" />
              <mxPoint x="-10" y="2240" />
              <mxPoint x="-10" y="1600" />
            </Array>
          </mxGeometry>
        </mxCell>
        <mxCell id="gcG7IGKVbkduZ7ScGkTq-49" value="" style="edgeStyle=orthogonalEdgeStyle;rounded=0;orthogonalLoop=1;jettySize=auto;html=1;" edge="1" parent="1" source="gcG7IGKVbkduZ7ScGkTq-44" target="gcG7IGKVbkduZ7ScGkTq-48">
          <mxGeometry relative="1" as="geometry" />
        </mxCell>
        <mxCell id="gcG7IGKVbkduZ7ScGkTq-44" value="int number3 = number1 + number2" style="whiteSpace=wrap;html=1;" vertex="1" parent="1">
          <mxGeometry x="-560" y="1669" width="230" height="60" as="geometry" />
        </mxCell>
        <mxCell id="gcG7IGKVbkduZ7ScGkTq-46" value="T" style="text;html=1;align=center;verticalAlign=middle;resizable=0;points=[];autosize=1;strokeColor=none;fillColor=none;" vertex="1" parent="1">
          <mxGeometry x="-175" y="1758" width="30" height="30" as="geometry" />
        </mxCell>
        <mxCell id="gcG7IGKVbkduZ7ScGkTq-47" value="F" style="text;html=1;align=center;verticalAlign=middle;resizable=0;points=[];autosize=1;strokeColor=none;fillColor=none;" vertex="1" parent="1">
          <mxGeometry x="-295" y="1648" width="30" height="30" as="geometry" />
        </mxCell>
        <mxCell id="gcG7IGKVbkduZ7ScGkTq-51" value="" style="edgeStyle=orthogonalEdgeStyle;rounded=0;orthogonalLoop=1;jettySize=auto;html=1;" edge="1" parent="1" source="gcG7IGKVbkduZ7ScGkTq-48" target="gcG7IGKVbkduZ7ScGkTq-50">
          <mxGeometry relative="1" as="geometry" />
        </mxCell>
        <mxCell id="gcG7IGKVbkduZ7ScGkTq-48" value="int array3" style="whiteSpace=wrap;html=1;" vertex="1" parent="1">
          <mxGeometry x="-505" y="1809" width="120" height="60" as="geometry" />
        </mxCell>
        <mxCell id="gcG7IGKVbkduZ7ScGkTq-53" value="" style="edgeStyle=orthogonalEdgeStyle;rounded=0;orthogonalLoop=1;jettySize=auto;html=1;" edge="1" parent="1" source="gcG7IGKVbkduZ7ScGkTq-59" target="gcG7IGKVbkduZ7ScGkTq-52">
          <mxGeometry relative="1" as="geometry" />
        </mxCell>
        <mxCell id="gcG7IGKVbkduZ7ScGkTq-50" value="int i = 0" style="whiteSpace=wrap;html=1;" vertex="1" parent="1">
          <mxGeometry x="-505" y="1949" width="120" height="60" as="geometry" />
        </mxCell>
        <mxCell id="gcG7IGKVbkduZ7ScGkTq-55" value="" style="edgeStyle=orthogonalEdgeStyle;rounded=0;orthogonalLoop=1;jettySize=auto;html=1;" edge="1" parent="1" source="gcG7IGKVbkduZ7ScGkTq-52" target="gcG7IGKVbkduZ7ScGkTq-54">
          <mxGeometry relative="1" as="geometry" />
        </mxCell>
        <mxCell id="gcG7IGKVbkduZ7ScGkTq-64" value="" style="edgeStyle=orthogonalEdgeStyle;rounded=0;orthogonalLoop=1;jettySize=auto;html=1;" edge="1" parent="1" source="gcG7IGKVbkduZ7ScGkTq-52" target="gcG7IGKVbkduZ7ScGkTq-63">
          <mxGeometry relative="1" as="geometry" />
        </mxCell>
        <mxCell id="gcG7IGKVbkduZ7ScGkTq-52" value="i &amp;lt; number1 ?" style="rhombus;whiteSpace=wrap;html=1;" vertex="1" parent="1">
          <mxGeometry x="-760" y="2050" width="120" height="90" as="geometry" />
        </mxCell>
        <mxCell id="gcG7IGKVbkduZ7ScGkTq-57" value="" style="edgeStyle=orthogonalEdgeStyle;rounded=0;orthogonalLoop=1;jettySize=auto;html=1;" edge="1" parent="1" source="gcG7IGKVbkduZ7ScGkTq-54" target="gcG7IGKVbkduZ7ScGkTq-56">
          <mxGeometry relative="1" as="geometry" />
        </mxCell>
        <mxCell id="gcG7IGKVbkduZ7ScGkTq-54" value="array3[ i ] = array1[ i ]" style="whiteSpace=wrap;html=1;" vertex="1" parent="1">
          <mxGeometry x="-760" y="2235" width="120" height="60" as="geometry" />
        </mxCell>
        <mxCell id="gcG7IGKVbkduZ7ScGkTq-56" value="i++" style="whiteSpace=wrap;html=1;" vertex="1" parent="1">
          <mxGeometry x="-760" y="2375" width="120" height="60" as="geometry" />
        </mxCell>
        <mxCell id="gcG7IGKVbkduZ7ScGkTq-58" value="" style="edgeStyle=orthogonalEdgeStyle;rounded=0;orthogonalLoop=1;jettySize=auto;html=1;" edge="1" parent="1" source="gcG7IGKVbkduZ7ScGkTq-50" target="gcG7IGKVbkduZ7ScGkTq-59">
          <mxGeometry relative="1" as="geometry">
            <mxPoint x="-505" y="1979" as="sourcePoint" />
            <mxPoint x="-700" y="2050" as="targetPoint" />
          </mxGeometry>
        </mxCell>
        <mxCell id="gcG7IGKVbkduZ7ScGkTq-59" value="" style="shape=waypoint;sketch=0;fillStyle=solid;size=6;pointerEvents=1;points=[];fillColor=none;resizable=0;rotatable=0;perimeter=centerPerimeter;snapToPoint=1;" vertex="1" parent="1">
          <mxGeometry x="-580" y="1969" width="20" height="20" as="geometry" />
        </mxCell>
        <mxCell id="gcG7IGKVbkduZ7ScGkTq-60" style="edgeStyle=orthogonalEdgeStyle;rounded=0;orthogonalLoop=1;jettySize=auto;html=1;exitX=0.5;exitY=1;exitDx=0;exitDy=0;entryX=0.85;entryY=0.6;entryDx=0;entryDy=0;entryPerimeter=0;" edge="1" parent="1" source="gcG7IGKVbkduZ7ScGkTq-56" target="gcG7IGKVbkduZ7ScGkTq-59">
          <mxGeometry relative="1" as="geometry">
            <Array as="points">
              <mxPoint x="-700" y="2470" />
              <mxPoint x="-570" y="2470" />
            </Array>
          </mxGeometry>
        </mxCell>
        <mxCell id="gcG7IGKVbkduZ7ScGkTq-62" value="T" style="text;html=1;align=center;verticalAlign=middle;resizable=0;points=[];autosize=1;strokeColor=none;fillColor=none;" vertex="1" parent="1">
          <mxGeometry x="-685" y="2138" width="30" height="30" as="geometry" />
        </mxCell>
        <mxCell id="gcG7IGKVbkduZ7ScGkTq-66" value="" style="edgeStyle=orthogonalEdgeStyle;rounded=0;orthogonalLoop=1;jettySize=auto;html=1;" edge="1" parent="1" source="gcG7IGKVbkduZ7ScGkTq-63" target="gcG7IGKVbkduZ7ScGkTq-65">
          <mxGeometry relative="1" as="geometry" />
        </mxCell>
        <mxCell id="gcG7IGKVbkduZ7ScGkTq-63" value="int i = 0" style="whiteSpace=wrap;html=1;" vertex="1" parent="1">
          <mxGeometry x="-960" y="2065" width="120" height="60" as="geometry" />
        </mxCell>
        <mxCell id="gcG7IGKVbkduZ7ScGkTq-68" value="" style="edgeStyle=orthogonalEdgeStyle;rounded=0;orthogonalLoop=1;jettySize=auto;html=1;" edge="1" parent="1" source="gcG7IGKVbkduZ7ScGkTq-65" target="gcG7IGKVbkduZ7ScGkTq-67">
          <mxGeometry relative="1" as="geometry" />
        </mxCell>
        <mxCell id="gcG7IGKVbkduZ7ScGkTq-75" value="" style="edgeStyle=orthogonalEdgeStyle;rounded=0;orthogonalLoop=1;jettySize=auto;html=1;" edge="1" parent="1" source="gcG7IGKVbkduZ7ScGkTq-65" target="gcG7IGKVbkduZ7ScGkTq-74">
          <mxGeometry relative="1" as="geometry" />
        </mxCell>
        <mxCell id="gcG7IGKVbkduZ7ScGkTq-65" value="i &amp;lt; number2 ?" style="rhombus;whiteSpace=wrap;html=1;" vertex="1" parent="1">
          <mxGeometry x="-1250" y="2140" width="130" height="135" as="geometry" />
        </mxCell>
        <mxCell id="gcG7IGKVbkduZ7ScGkTq-70" value="" style="edgeStyle=orthogonalEdgeStyle;rounded=0;orthogonalLoop=1;jettySize=auto;html=1;" edge="1" parent="1" source="gcG7IGKVbkduZ7ScGkTq-67" target="gcG7IGKVbkduZ7ScGkTq-69">
          <mxGeometry relative="1" as="geometry" />
        </mxCell>
        <mxCell id="gcG7IGKVbkduZ7ScGkTq-67" value="&amp;nbsp;array3[ number1 + i ] = array2[ i ]" style="whiteSpace=wrap;html=1;" vertex="1" parent="1">
          <mxGeometry x="-1292.5" y="2392.5" width="215" height="60" as="geometry" />
        </mxCell>
        <mxCell id="gcG7IGKVbkduZ7ScGkTq-69" value="i++" style="whiteSpace=wrap;html=1;" vertex="1" parent="1">
          <mxGeometry x="-1245" y="2532.5" width="120" height="60" as="geometry" />
        </mxCell>
        <mxCell id="gcG7IGKVbkduZ7ScGkTq-71" value="" style="shape=waypoint;sketch=0;fillStyle=solid;size=6;pointerEvents=1;points=[];fillColor=none;resizable=0;rotatable=0;perimeter=centerPerimeter;snapToPoint=1;" vertex="1" parent="1">
          <mxGeometry x="-1195" y="2105" width="20" height="20" as="geometry" />
        </mxCell>
        <mxCell id="gcG7IGKVbkduZ7ScGkTq-72" style="edgeStyle=orthogonalEdgeStyle;rounded=0;orthogonalLoop=1;jettySize=auto;html=1;exitX=0.5;exitY=1;exitDx=0;exitDy=0;entryX=0.878;entryY=0.45;entryDx=0;entryDy=0;entryPerimeter=0;" edge="1" parent="1" source="gcG7IGKVbkduZ7ScGkTq-69" target="gcG7IGKVbkduZ7ScGkTq-71">
          <mxGeometry relative="1" as="geometry">
            <Array as="points">
              <mxPoint x="-1185" y="2650" />
              <mxPoint x="-1020" y="2650" />
              <mxPoint x="-1020" y="2115" />
            </Array>
          </mxGeometry>
        </mxCell>
        <mxCell id="gcG7IGKVbkduZ7ScGkTq-73" value="T" style="text;html=1;align=center;verticalAlign=middle;resizable=0;points=[];autosize=1;strokeColor=none;fillColor=none;" vertex="1" parent="1">
          <mxGeometry x="-1175" y="2278" width="30" height="30" as="geometry" />
        </mxCell>
        <mxCell id="gcG7IGKVbkduZ7ScGkTq-78" value="" style="edgeStyle=orthogonalEdgeStyle;rounded=0;orthogonalLoop=1;jettySize=auto;html=1;" edge="1" parent="1" source="gcG7IGKVbkduZ7ScGkTq-74" target="gcG7IGKVbkduZ7ScGkTq-77">
          <mxGeometry relative="1" as="geometry" />
        </mxCell>
        <mxCell id="gcG7IGKVbkduZ7ScGkTq-74" value="qsort( array3, number3, sizeof( int ), compare )&amp;nbsp;" style="whiteSpace=wrap;html=1;" vertex="1" parent="1">
          <mxGeometry x="-1620" y="2177.5" width="285" height="60" as="geometry" />
        </mxCell>
        <mxCell id="gcG7IGKVbkduZ7ScGkTq-76" value="F" style="text;html=1;align=center;verticalAlign=middle;resizable=0;points=[];autosize=1;strokeColor=none;fillColor=none;" vertex="1" parent="1">
          <mxGeometry x="-1295" y="2168" width="30" height="30" as="geometry" />
        </mxCell>
        <mxCell id="gcG7IGKVbkduZ7ScGkTq-82" value="" style="edgeStyle=orthogonalEdgeStyle;rounded=0;orthogonalLoop=1;jettySize=auto;html=1;" edge="1" parent="1" source="gcG7IGKVbkduZ7ScGkTq-77" target="gcG7IGKVbkduZ7ScGkTq-81">
          <mxGeometry relative="1" as="geometry" />
        </mxCell>
        <mxCell id="gcG7IGKVbkduZ7ScGkTq-77" value="แสดงข้อความ Merge Array1 &amp;amp; Array2 to Array3" style="shape=parallelogram;perimeter=parallelogramPerimeter;whiteSpace=wrap;html=1;fixedSize=1;" vertex="1" parent="1">
          <mxGeometry x="-1980" y="2278" width="290" height="60" as="geometry" />
        </mxCell>
        <mxCell id="gcG7IGKVbkduZ7ScGkTq-84" value="" style="edgeStyle=orthogonalEdgeStyle;rounded=0;orthogonalLoop=1;jettySize=auto;html=1;" edge="1" parent="1" source="gcG7IGKVbkduZ7ScGkTq-81" target="gcG7IGKVbkduZ7ScGkTq-83">
          <mxGeometry relative="1" as="geometry" />
        </mxCell>
        <mxCell id="gcG7IGKVbkduZ7ScGkTq-81" value="แสดงข้อความ Array3 :" style="shape=parallelogram;perimeter=parallelogramPerimeter;whiteSpace=wrap;html=1;fixedSize=1;" vertex="1" parent="1">
          <mxGeometry x="-1912.5" y="2410" width="155" height="60" as="geometry" />
        </mxCell>
        <mxCell id="gcG7IGKVbkduZ7ScGkTq-86" value="" style="edgeStyle=orthogonalEdgeStyle;rounded=0;orthogonalLoop=1;jettySize=auto;html=1;" edge="1" parent="1" source="gcG7IGKVbkduZ7ScGkTq-83" target="gcG7IGKVbkduZ7ScGkTq-85">
          <mxGeometry relative="1" as="geometry" />
        </mxCell>
        <mxCell id="gcG7IGKVbkduZ7ScGkTq-83" value="int i = 0" style="whiteSpace=wrap;html=1;" vertex="1" parent="1">
          <mxGeometry x="-1895" y="2550" width="120" height="60" as="geometry" />
        </mxCell>
        <mxCell id="gcG7IGKVbkduZ7ScGkTq-88" value="" style="edgeStyle=orthogonalEdgeStyle;rounded=0;orthogonalLoop=1;jettySize=auto;html=1;" edge="1" parent="1" source="gcG7IGKVbkduZ7ScGkTq-85" target="gcG7IGKVbkduZ7ScGkTq-87">
          <mxGeometry relative="1" as="geometry" />
        </mxCell>
        <mxCell id="gcG7IGKVbkduZ7ScGkTq-93" style="edgeStyle=orthogonalEdgeStyle;rounded=0;orthogonalLoop=1;jettySize=auto;html=1;exitX=1;exitY=0.5;exitDx=0;exitDy=0;" edge="1" parent="1" source="gcG7IGKVbkduZ7ScGkTq-85" target="gcG7IGKVbkduZ7ScGkTq-92">
          <mxGeometry relative="1" as="geometry" />
        </mxCell>
        <mxCell id="gcG7IGKVbkduZ7ScGkTq-85" value="i &amp;lt; number 3 ?" style="rhombus;whiteSpace=wrap;html=1;" vertex="1" parent="1">
          <mxGeometry x="-1892.5" y="2690" width="115" height="100" as="geometry" />
        </mxCell>
        <mxCell id="gcG7IGKVbkduZ7ScGkTq-90" value="" style="edgeStyle=orthogonalEdgeStyle;rounded=0;orthogonalLoop=1;jettySize=auto;html=1;" edge="1" parent="1" source="gcG7IGKVbkduZ7ScGkTq-87" target="gcG7IGKVbkduZ7ScGkTq-89">
          <mxGeometry relative="1" as="geometry" />
        </mxCell>
        <mxCell id="gcG7IGKVbkduZ7ScGkTq-87" value="แสดง Array3" style="shape=parallelogram;perimeter=parallelogramPerimeter;whiteSpace=wrap;html=1;fixedSize=1;" vertex="1" parent="1">
          <mxGeometry x="-1895" y="2890" width="120" height="60" as="geometry" />
        </mxCell>
        <mxCell id="gcG7IGKVbkduZ7ScGkTq-89" value="i++" style="whiteSpace=wrap;html=1;" vertex="1" parent="1">
          <mxGeometry x="-1895" y="3030" width="120" height="60" as="geometry" />
        </mxCell>
        <mxCell id="gcG7IGKVbkduZ7ScGkTq-91" value="T" style="text;html=1;align=center;verticalAlign=middle;resizable=0;points=[];autosize=1;strokeColor=none;fillColor=none;" vertex="1" parent="1">
          <mxGeometry x="-1835" y="2788" width="30" height="30" as="geometry" />
        </mxCell>
        <mxCell id="gcG7IGKVbkduZ7ScGkTq-92" value="end" style="ellipse;whiteSpace=wrap;html=1;" vertex="1" parent="1">
          <mxGeometry x="340" y="3130" width="120" height="80" as="geometry" />
        </mxCell>
        <mxCell id="gcG7IGKVbkduZ7ScGkTq-94" value="F" style="text;html=1;align=center;verticalAlign=middle;resizable=0;points=[];autosize=1;strokeColor=none;fillColor=none;" vertex="1" parent="1">
          <mxGeometry x="-1755" y="2708" width="30" height="30" as="geometry" />
        </mxCell>
      </root>
    </mxGraphModel>
  </diagram>
</mxfile>
